PathFileType	4	(X/Y/Z)	Patient4_TMGait_0pt6_02_left_21.trc.trc
DataRate	CameraRate	NumFrames	NumMarkers	Units	OrigDataRate	OrigDataStartFrame	OrigNumFrames
85.365853658537	85.365853658537	5	33	mm	85.365853658537	1	       141
Frame#	Time	Sacral			L.Shoulder			Chest			R.Shoulder			Neck			R.ASIS			L.ASIS			R.Thigh.Superior			R.Thigh.Lateral			R.Thigh.Inferior			R.Patella			L.Thigh.Superior			L.Thigh.Lateral			L.Thigh.Inferior			L.Patella			L.Shank.Superior			L.Shank.Lateral			L.Shank.Inferior			R.Shank.Superior			R.Shank.Lateral			R.Shank.Inferior			R.Heel			R.Midfoot.Superior			R.Midfoot.Lateral			R.Toe			L.Heel			L.Midfoot.Lateral			L.Midfoot.Superior			L.Toe			L.Elbow			L.Wrist			R.Elbow			R.Wrist			
		X1	Y1	Z1	X2	Y2	Z2	X3	Y3	Z3	X4	Y4	Z4	X5	Y5	Z5	X6	Y6	Z6	X7	Y7	Z7	X8	Y8	Z8	X9	Y9	Z9	X10	Y10	Z10	X11	Y11	Z11	X12	Y12	Z12	X13	Y13	Z13	X14	Y14	Z14	X15	Y15	Z15	X16	Y16	Z16	X17	Y17	Z17	X18	Y18	Z18	X19	Y19	Z19	X20	Y20	Z20	X21	Y21	Z21	X22	Y22	Z22	X23	Y23	Z23	X24	Y24	Z24	X25	Y25	Z25	X26	Y26	Z26	X27	Y27	Z27	X28	Y28	Z28	X29	Y29	Z29	X30	Y30	Z30	X31	Y31	Z31	X32	Y32	Z32	X33	Y33	Z33	

1	25.790000000000	810.283198591220	1014.525655290249	503.948012788702	982.761360831302	1436.233577278267	314.695590361608	1096.130958820660	1361.229415431891	465.632467015280	1031.355556259537	1438.659439862749	644.784239394903	995.631054467003	1497.646949561718	466.765918642074	1039.870395461428	947.397673495712	614.129382339048	1014.842519432730	961.070081515658	339.872538777734	1063.870903630361	740.584242080239	586.437262816016	971.649095422571	637.296876393830	640.918421089708	1044.319194799799	581.529765943372	560.674365366322	1037.953988748981	497.600214732882	563.329637890193	1099.803414911267	788.599744403069	364.268271508311	1056.399706131337	660.416986547083	284.457849489988	1168.206205124150	604.096531899893	335.945243793041	1187.331188186304	516.493824861510	327.666725835893	1129.635990384142	443.297767753543	325.420767715936	993.723661617329	378.967198015944	286.109555220838	1005.941604697412	249.898339542169	341.228371755845	1013.674071913358	409.772375580348	566.237268506423	945.172689505566	301.753372070663	622.623189198882	994.138398477901	211.052316309231	556.306072503914	865.638696268246	42.919209399073	518.488768741377	1038.553714878992	98.308282468010	551.803083554225	950.859555039756	36.574835709296	590.507941739014	1158.764786601758	44.984137377895	574.295201211565	832.163067960066	148.998125163965	392.545460333658	889.099198558012	123.787070157249	303.233135998008	992.766011028244	149.580771601966	317.457130694839	1086.734925764845	58.137938614670	270.663962563711	942.028773678126	1077.869466214662	213.705247931970	1020.358485351647	828.393107184263	212.477402653111	1077.065528199380	1093.501636071174	769.811371211150	1275.914713711395	929.638529602237	728.993375498817	
2	25.801714285714	809.115297023192	1014.360277260589	505.185784527761	980.714422988964	1435.799003346527	315.106121614113	1095.033497422066	1360.908731514851	465.353213198565	1031.560644187847	1438.658422565382	644.888237958020	994.684323402798	1497.380137510350	466.988304370092	1038.930357574741	946.930767383208	614.233260925139	1012.819240076271	961.302630369714	339.966927929406	1061.447602041333	740.029609380413	585.181297157085	969.547407151439	636.920280734134	640.874848635366	1041.080761779039	580.868380537856	560.028555777749	1034.092030768150	496.890693894898	562.863582275888	1098.507567243183	789.906812153936	364.677107976247	1056.999840644920	661.578193719849	284.407324712289	1168.175302386518	605.814686273405	337.378836202174	1188.761525854594	519.675447510236	328.619777397747	1134.373648495583	445.662950829878	325.106006032979	1002.837358024696	374.765745433859	284.639565682123	1022.296642503327	246.379698496128	338.516508141218	1009.300419159726	409.177909634315	565.928859463541	940.173365408739	301.560975565996	622.480256382239	987.936550190041	210.562548844598	555.963673496534	858.303247419370	42.889147007798	518.432915851632	1031.229720464310	98.161074990042	551.728901097595	943.475313452872	36.622154322311	590.568231906753	1151.365000726775	44.651859637190	574.348102405244	855.269185706787	136.009098698437	388.407179822387	913.451187984284	114.634131148051	299.204989455392	1015.010459650583	145.946804179470	314.012947801503	1113.571014319689	60.458527799521	267.098730842483	932.252656046806	1078.318669786090	214.907878749651	997.880576359160	826.595501549771	213.653659049231	1086.499942999966	1096.040451397411	769.886045993249	1293.546123057743	947.334785350688	724.794113797674	
3	25.813428571429	807.956618854791	1014.182945962614	506.380201168973	978.703891929195	1435.365500093341	315.498677434611	1093.954170915715	1360.566721782209	465.056904034678	1031.773206495255	1438.619753066039	644.975088902377	993.759639079084	1497.094978996267	467.202181661846	1038.002820840052	946.449612909511	614.285172704911	1010.833445804151	961.482809631786	340.036807076704	1059.082678732061	739.465128396354	583.975207731824	967.471234458233	636.533963885553	640.830059552378	1037.893181787169	580.197139791537	559.403570559027	1030.290604915365	496.174438647475	562.403529951608	1097.175698465114	791.075105034955	365.065837839863	1057.472923948208	662.632902995769	284.349399685807	1167.974655660461	607.364982858897	338.831392371350	1190.009033046433	522.719820201805	329.583475966614	1138.921483279356	447.949619583744	324.825959723114	1011.870794983544	370.564221113350	283.140007559216	1038.483943417202	242.963786571874	335.874069690860	1004.985156266001	408.573144737716	565.619821248082	935.250676924565	301.359494106673	622.344268597002	981.814977106812	210.067112040637	555.621597390464	851.047976103414	42.862774673357	518.382461372152	1023.987390990891	98.008394457624	551.647152846960	936.174768658028	36.664019718845	590.623397384059	1144.053659314852	44.319746574016	574.398546437201	878.260667296752	123.278365037308	384.268479386842	937.714911784242	105.714823207459	295.237561139866	1037.093754639701	142.475444161706	310.695268821401	1140.178415975538	62.944611082328	263.796096134006	922.598815228088	1078.804011060613	216.050766761032	975.810237637594	824.969992918412	214.850111001219	1095.782947693458	1098.557816481796	769.919980473153	1310.734421958604	964.940789241637	720.597463729635	
4	25.825142857143	806.814266894973	1013.983571022696	507.488507481340	976.756469618226	1434.936144170297	315.848518095897	1092.905494789588	1360.185352709234	464.717224585355	1031.997237634043	1438.510186030826	645.017294432071	992.870608202263	1496.775104485685	467.390241690002	1037.101051063157	945.941167881257	614.230539245706	1008.907582022031	961.563328356044	340.048096163496	1056.809434420904	738.874579325312	582.852973020845	965.413215952235	636.130029669553	640.774727956284	1034.761716347128	579.503789881689	558.808174430382	1026.557145141579	495.442198796560	561.944367864900	1095.750986086150	791.971928291868	365.400051990631	1057.667781072061	663.472450057523	284.264154248635	1167.436351283141	608.590799969647	340.279130374085	1190.888562224006	525.501979779439	330.545270799257	1143.099053206402	450.095599831210	324.595937678870	1020.753409440118	366.366898551247	281.600095655155	1054.376260080331	239.772335090497	333.367261188273	1000.729158914963	407.948633753145	565.302782466339	930.419036660263	301.143934797491	622.218526626238	975.786086583079	209.562110666910	555.277679669530	843.882569611403	42.843395969800	518.342623135235	1016.835636164107	97.845137929609	551.550458958988	928.971321268968	36.697320089350	590.672250033059	1136.847638209056	43.988681954220	574.445128736776	901.090239842917	111.078620477914	380.174767630759	961.854663964447	97.261666204030	291.421872007077	1058.910730151531	139.340660511318	307.621144278776	1166.380746841271	65.773287593226	260.988815006510	913.121134215971	1079.388112209083	217.084527736543	954.420767163426	823.705559679803	216.092561356391	1104.823187472299	1101.062888019265	769.847705663283	1327.089042487218	982.491261465156	716.376890959764	
5	25.836857142857	805.694343366152	1013.756508920377	508.476953280796	974.893331372368	1434.515143696053	316.133507896400	1091.896753355203	1359.752331281936	464.311433305216	1032.232991392194	1438.305425809110	644.989756439975	992.026096392908	1496.409581677791	467.535737532048	1036.237699188326	945.398688073917	614.034774930319	1007.055435910037	961.509796741019	339.970200631151	1054.647318634388	738.243975381657	581.843020478601	963.354978511817	635.704229600753	640.698724234438	1031.677726556683	578.779426756540	558.249262655154	1022.879223564470	494.687351238421	561.478798713462	1094.180016077607	792.496503513053	365.648087571927	1057.454879951983	664.014770739127	284.121504623663	1166.429335186675	609.376608029423	341.675828229875	1191.251290741929	527.929452747250	331.478724857608	1146.765033679836	452.059617368431	324.420296893227	1029.431480497351	362.189240631246	280.015135163229	1069.873348771437	236.920108093454	331.053166198844	996.514911181766	407.299244375078	564.969164071289	925.669501784067	300.912832069890	622.104149756042	969.839226620486	209.046755581490	554.929645413490	836.796434734873	42.832750961312	518.316788395608	1009.762292309946	97.669396042762	551.435099496601	921.856095438095	36.719991845584	590.714295299942	1129.740122499135	43.660123530670	574.487346472706	923.722132147670	99.655116771245	376.180574875522	985.845760789740	89.472869977725	287.851013304951	1080.382130016734	136.694059044094	304.891735809632	1192.039675211672	69.091174402780	258.880211329176	903.843904771906	1080.131577442574	217.976804733320	933.895997600849	822.954805013329	217.400856523704	1113.564726344870	1103.570919515255	769.607945188610	1342.309229489118	1000.039752010755	712.106828064124	
